<mxfile host="app.diagrams.net" modified="2023-05-20T23:40:50.362Z" agent="Mozilla/5.0 (Windows NT 10.0; Win64; x64) AppleWebKit/537.36 (KHTML, like Gecko) Chrome/113.0.0.0 Safari/537.36" version="21.3.2" etag="AMlY1PP0PphTGyUA3P4K" type="github">
  <diagram name="Page-1" id="56YmgL2-0bkLtIpbKpwM">
    <mxGraphModel>
      <root>
        <mxCell id="0" />
        <mxCell id="1" parent="0" />
      </root>
    </mxGraphModel>
  </diagram>
</mxfile>
